<?xml version="1.0" standalone="no"?><!-- Generator: Gravit.io --><svg xmlns="http://www.w3.org/2000/svg" xmlns:xlink="http://www.w3.org/1999/xlink" style="isolation:isolate" viewBox="0 0 595.276 575.433" width="595.276" height="575.433"><defs><clipPath id="_clipPath_ldigCiRvaMfRvXeGQwErgwbtCnh0S3hX"><rect width="595.276" height="575.433"/></clipPath></defs><g clip-path="url(#_clipPath_ldigCiRvaMfRvXeGQwErgwbtCnh0S3hX)"><g id="Group"><path d=" M 528.067 431.569 L 38.405 431.569 C 22.497 431.569 9.601 418.688 9.601 402.798 L 9.601 38.362 C 9.601 22.472 22.497 9.59 38.405 9.59 L 182.423 9.59 L 268.834 67.133 L 499.263 67.133 C 515.171 67.133 528.067 80.014 528.067 95.904 L 528.067 431.569 Z " fill="rgb(255,255,255)"/><path d=" M 38.405 9.59 L 192.024 9.59 L 259.233 76.723 L 9.601 76.723 L 9.601 38.362 C 9.601 22.472 22.497 9.59 38.405 9.59 Z " fill="rgb(255,255,255)"/><path d=" M 9.601 335.665 L 528.067 335.665 L 528.067 431.569 L 38.405 431.569 C 22.497 431.569 9.601 418.688 9.601 402.798 L 9.601 335.665 Z " fill="rgb(255,255,255)"/><path d=" M 566.472 95.904 L 537.668 95.904 L 537.668 86.314 C 537.668 70.424 524.772 57.543 508.865 57.543 L 266.05 57.543 C 258.461 57.549 251.181 54.545 245.81 49.189 L 209.998 13.897 C 201.017 5.015 188.897 0.022 176.259 0 L 28.804 0 C 12.896 0 0 12.881 0 28.771 L 0 402.798 C 0 423.993 17.186 441.16 38.405 441.16 L 556.871 441.16 C 578.089 441.16 595.276 423.993 595.276 402.798 L 595.276 124.676 C 595.276 108.786 582.38 95.904 566.472 95.904 Z  M 38.405 421.979 C 27.8 421.979 19.202 413.391 19.202 402.798 L 19.202 345.255 L 220.828 345.255 C 226.109 345.255 230.429 340.94 230.429 335.665 C 230.429 330.39 226.109 326.074 220.828 326.074 L 19.202 326.074 L 19.202 28.771 C 19.202 23.497 23.523 19.181 28.804 19.181 L 176.278 19.181 C 183.883 19.181 191.16 22.183 196.527 27.534 L 232.34 62.904 C 241.318 71.768 253.436 76.734 266.059 76.723 L 508.865 76.723 C 514.145 76.723 518.466 81.039 518.466 86.314 L 518.466 326.074 L 355.245 326.074 C 349.964 326.074 345.644 330.39 345.644 335.665 C 345.644 340.94 349.964 345.255 355.245 345.255 L 518.466 345.255 L 518.466 402.798 C 518.717 409.617 520.803 416.243 524.505 421.979 L 38.405 421.979 Z  M 576.073 402.798 C 576.073 413.391 567.476 421.979 556.871 421.979 C 546.761 420.871 538.778 412.897 537.668 402.798 L 537.668 115.085 L 566.472 115.085 C 571.753 115.085 576.073 119.401 576.073 124.676 L 576.073 402.798 Z " fill="rgb(0,0,0)"/><path d=" M 316.84 220.58 L 316.84 460.34 L 355.245 421.979 L 393.65 460.34 L 288.037 565.835 L 182.423 460.34 L 220.828 421.979 L 259.233 460.34 L 259.233 220.58 L 316.84 220.58 Z " fill="rgb(96,96,96)"/><path d=" M 294.853 572.644 L 400.467 467.15 C 404.189 463.409 404.189 457.368 400.467 453.627 L 362.062 415.265 C 358.313 411.557 352.273 411.557 348.524 415.265 L 326.441 437.227 L 326.441 220.58 C 326.441 215.305 322.121 210.989 316.84 210.989 L 259.233 210.989 C 253.952 210.989 249.632 215.305 249.632 220.58 L 249.632 437.227 L 227.645 415.265 C 223.896 411.557 217.856 411.557 214.107 415.265 L 175.702 453.627 C 171.99 457.372 171.99 463.405 175.702 467.15 L 281.316 572.644 C 285.061 576.363 291.109 576.363 294.853 572.644 Z  M 195.961 460.34 L 220.828 435.501 L 252.416 467.054 C 255.151 469.808 259.277 470.645 262.87 469.176 C 266.464 467.706 268.818 464.219 268.834 460.34 L 268.834 230.17 L 307.239 230.17 L 307.239 460.34 C 307.216 464.237 309.556 467.759 313.158 469.253 C 316.761 470.748 320.91 469.916 323.657 467.15 L 355.245 435.501 L 380.112 460.34 L 288.037 552.313 L 195.961 460.34 Z " fill="rgb(96,96,96)"/></g></g></svg>