<?xml version="1.0" encoding="UTF-8" standalone="no"?>
<svg
   xmlns:dc="http://purl.org/dc/elements/1.1/"
   xmlns:cc="http://creativecommons.org/ns#"
   xmlns:rdf="http://www.w3.org/1999/02/22-rdf-syntax-ns#"
   xmlns:svg="http://www.w3.org/2000/svg"
   xmlns="http://www.w3.org/2000/svg"
   xmlns:sodipodi="http://sodipodi.sourceforge.net/DTD/sodipodi-0.dtd"
   xmlns:inkscape="http://www.inkscape.org/namespaces/inkscape"
   height="512px"
   id="Layer_1"
   style="enable-background:new 0 0 512 512;"
   version="1.1"
   viewBox="0 0 512 512"
   width="512px"
   xml:space="preserve"
   sodipodi:docname="facebook.svg"
   inkscape:version="0.92.2 5c3e80d, 2017-08-06"><metadata
     id="metadata9"><rdf:RDF><cc:Work
         rdf:about=""><dc:format>image/svg+xml</dc:format><dc:type
           rdf:resource="http://purl.org/dc/dcmitype/StillImage" /></cc:Work></rdf:RDF></metadata><defs
     id="defs7" /><sodipodi:namedview
     pagecolor="#ffffff"
     bordercolor="#666666"
     borderopacity="1"
     objecttolerance="10"
     gridtolerance="10"
     guidetolerance="10"
     inkscape:pageopacity="0"
     inkscape:pageshadow="2"
     inkscape:window-width="947"
     inkscape:window-height="738"
     id="namedview5"
     showgrid="false"
     inkscape:zoom="0.65186406"
     inkscape:cx="203.98403"
     inkscape:cy="225.78043"
     inkscape:window-x="879"
     inkscape:window-y="143"
     inkscape:window-maximized="0"
     inkscape:current-layer="Layer_1" /><path
     d="M 258.32422 26.361328 A 231.64339 231.64339 0 0 0 26.681641 258.00586 A 231.64339 231.64339 0 0 0 258.32422 489.64844 A 231.64339 231.64339 0 0 0 489.96875 258.00586 A 231.64339 231.64339 0 0 0 258.32422 26.361328 z M 280.75977 64 L 336.66016 64 L 336.66016 128 L 303.16016 128 C 276.46016 128 272.66016 136.70039 272.66016 153.90039 L 272.66016 192 L 336.66016 192 L 329.05859 256 L 272.66016 256 L 272.66016 448 L 189.66016 448 L 189.66016 256 L 144.66016 256 L 144.66016 192 L 189.66016 192 L 189.66016 149.30078 C 189.66016 95.400781 212.25977 64 280.75977 64 z "
     id="path3713" /></svg>