<?xml version="1.0" standalone="no"?><!-- Generator: Gravit.io --><svg xmlns="http://www.w3.org/2000/svg" xmlns:xlink="http://www.w3.org/1999/xlink" style="isolation:isolate" viewBox="0 0 595.276 462.047" width="595.276" height="462.047"><defs><clipPath id="_clipPath_aCHwzohpP7GLrYRttMWlwGDtT42Uo9dZ"><rect width="595.276" height="462.047"/></clipPath></defs><g clip-path="url(#_clipPath_aCHwzohpP7GLrYRttMWlwGDtT42Uo9dZ)"><path d=" M 189 11.5 L 20 12.5 L 12 22.5 L 11 421.5 L 23 449.5 L 73 452.5 L 530 452.5 L 544 449.5 L 527 433.5 L 527 75.5 L 501 65.5 L 269 67.5 L 239 57.5 L 205 18.5 L 189 11.5 Z " fill="rgb(255,255,255)" vector-effect="non-scaling-stroke" stroke-width="1" stroke="rgb(0,0,0)" stroke-linejoin="miter" stroke-linecap="square" stroke-miterlimit="3"/><path d=" M 28.804 0 C 12.942 0 0 12.976 0 28.878 L 0 423.543 C 0 444.788 17.215 462.047 38.405 462.047 L 557.063 462.047 C 578.185 461.91 595.244 444.72 595.276 423.543 L 595.276 125.138 C 595.276 109.236 582.333 96.26 566.472 96.26 L 537.668 96.26 L 537.668 86.634 C 537.668 70.732 524.726 57.756 508.865 57.756 C 453.622 58.859 372.684 58.869 266.021 57.756 C 258.432 57.775 251.146 54.773 245.762 49.41 L 210.027 13.91 C 201.033 4.984 188.885 -0.015 176.23 0 L 28.804 0 Z  M 28.804 19.252 L 176.23 19.252 C 183.883 19.252 191.045 22.226 196.489 27.598 L 232.234 63.098 C 241.223 72.019 253.363 77.018 266.011 77.008 L 508.865 77.008 C 514.145 77.008 518.466 81.34 518.466 86.634 L 518.466 423.543 C 518.466 429.483 520.607 436.442 524.543 442.795 L 38.405 442.795 C 27.824 442.795 19.202 434.151 19.202 423.543 L 19.202 365.787 L 412.852 365.787 C 418.133 365.787 422.454 361.456 422.454 356.161 C 422.454 350.867 418.133 346.535 412.852 346.535 L 19.202 346.535 L 19.202 28.878 C 19.202 23.584 23.523 19.252 28.804 19.252 Z  M 537.668 115.512 L 566.472 115.512 C 571.753 115.512 576.073 119.844 576.073 125.138 L 576.073 423.543 C 576.073 434.151 567.451 442.795 556.871 442.795 C 544.908 442.795 537.668 429.415 537.668 423.543 L 537.668 115.512 Z  M 278.435 116.08 C 220.492 116.08 173.388 163.305 173.388 221.398 C 173.388 279.49 220.492 326.716 278.435 326.716 C 336.379 326.716 383.482 279.49 383.482 221.398 C 383.482 163.305 336.379 116.08 278.435 116.08 Z  M 268.834 136.718 L 268.834 212.34 L 235.383 212.34 C 237.4 172.892 252.445 144.842 268.834 136.718 Z  M 288.037 136.718 C 304.426 144.842 319.461 172.892 321.487 212.34 L 288.037 212.34 L 288.037 136.718 Z  M 235.268 145.863 C 225.101 162.891 218.543 186.09 217.266 212.34 L 191.986 212.34 C 194.914 183.876 211.64 159.464 235.268 145.853 L 235.268 145.863 Z  M 321.602 145.863 C 345.231 159.464 361.956 183.876 364.885 212.34 L 339.595 212.34 C 338.357 186.09 331.761 162.891 321.593 145.853 L 321.602 145.863 Z  M 191.986 230.456 L 217.266 230.456 C 218.505 256.706 225.101 279.904 235.268 296.942 C 211.64 283.331 194.914 258.92 191.986 230.456 Z  M 235.383 230.494 L 268.834 230.494 L 268.834 306.077 C 252.445 297.992 237.409 269.941 235.383 230.494 Z  M 288.037 230.494 L 321.487 230.494 C 319.471 269.903 304.426 297.992 288.037 306.077 L 288.037 230.494 Z  M 339.605 230.494 L 364.885 230.494 C 361.956 258.958 345.231 283.331 321.602 296.942 C 331.77 279.904 338.328 256.706 339.605 230.494 Z  M 451.257 346.535 C 445.977 346.535 441.656 350.867 441.656 356.161 C 441.656 361.456 445.977 365.787 451.257 365.787 L 489.662 365.787 C 494.943 365.787 499.263 361.456 499.263 356.161 C 499.263 350.867 494.943 346.535 489.662 346.535 L 451.257 346.535 Z " fill="rgb(0,0,0)"/></g></svg>